<svg xmlns="http://www.w3.org/2000/svg" width="600" height="300" viewBox="0 0 600 300"><rect width="100%" height="100%" fill="#DDDDDD"/><path fill="#999999" d="m155.52 121.08-17.16 21-2 2.48q1.68-.84 3.62-1.3t4.18-.46q3.28 0 6.38 1.08t5.46 3.26 3.8 5.42 1.44 7.56q0 4.04-1.48 7.58t-4.16 6.18-6.46 4.16-8.34 1.52q-4.64 0-8.32-1.48t-6.28-4.14-3.98-6.4-1.38-8.3q0-4.08 1.66-8.38t5.14-8.94l13.8-18.52q.72-.96 2.1-1.64t3.18-.68zm-14.92 50.4q2.36 0 4.34-.8t3.4-2.24 2.22-3.38.8-4.22q0-2.48-.76-4.46t-2.16-3.36-3.36-2.1-4.32-.72-4.28.8-3.28 2.22-2.12 3.36-.76 4.18q0 2.4.66 4.38t1.96 3.38 3.22 2.18 4.44.78M208.28 150q0 7.56-1.62 13.14t-4.48 9.22-6.76 5.42-8.42 1.78-8.38-1.78-6.7-5.42-4.44-9.22-1.6-13.14q0-7.6 1.6-13.16t4.44-9.2 6.7-5.42 8.38-1.78 8.42 1.78 6.76 5.42 4.48 9.2 1.62 13.16m-10.2 0q0-6.28-.92-10.4t-2.46-6.56-3.54-3.42-4.16-.98q-2.12 0-4.1.98t-3.5 3.42-2.42 6.56-.9 10.4.9 10.4 2.42 6.56 3.5 3.42 4.1.98q2.16 0 4.16-.98t3.54-3.42 2.46-6.56.92-10.4m56.6 0q0 7.56-1.62 13.14t-4.48 9.22-6.76 5.42-8.42 1.78-8.38-1.78-6.7-5.42-4.44-9.22-1.6-13.14q0-7.6 1.6-13.16t4.44-9.2 6.7-5.42 8.38-1.78 8.42 1.78 6.76 5.42 4.48 9.2 1.62 13.16m-10.2 0q0-6.28-.92-10.4t-2.46-6.56-3.54-3.42-4.16-.98q-2.12 0-4.1.98t-3.5 3.42-2.42 6.56-.9 10.4.9 10.4 2.42 6.56 3.5 3.42 4.1.98q2.16 0 4.16-.98t3.54-3.42 2.46-6.56.92-10.4m73.72 15.68-5.24 5.16-13.56-13.56-13.68 13.64-5.24-5.16 13.68-13.72L281.12 139l5.2-5.2 13.04 13.04 12.96-12.96 5.28 5.2-13 13zm33.28-27.56-5.2-.92q.6-4.16 2.32-7.3t4.3-5.24 5.92-3.16 7.18-1.06q4 0 7.22 1.14t5.5 3.16 3.5 4.74 1.22 5.88q0 2.76-.62 4.86t-1.78 3.66-2.88 2.64-3.88 1.8q5.2 1.64 7.76 5t2.56 8.44q0 4.32-1.6 7.64t-4.32 5.58-6.3 3.42-7.58 1.16q-4.36 0-7.6-1t-5.64-2.96-4.08-4.8-2.88-6.56l4.36-1.8q1.72-.72 3.22-.38t2.18 1.62q.72 1.4 1.58 2.76t2.06 2.42 2.82 1.72 3.86.66q2.52 0 4.4-.82t3.14-2.14 1.88-2.94.62-3.26q0-2.08-.44-3.78t-1.84-2.9-4.02-1.88-7.02-.68v-7.04q3.64-.04 6.04-.68t3.82-1.78 1.98-2.74.56-3.52q0-4.08-2.28-6.2t-6.08-2.12q-1.76 0-3.24.5t-2.66 1.4-1.98 2.1-1.2 2.64q-.68 1.84-1.78 2.44t-3.1.28M432.76 150q0 7.56-1.62 13.14t-4.48 9.22-6.76 5.42-8.42 1.78-8.38-1.78-6.7-5.42-4.44-9.22-1.6-13.14q0-7.6 1.6-13.16t4.44-9.2 6.7-5.42 8.38-1.78 8.42 1.78 6.76 5.42 4.48 9.2 1.62 13.16m-10.2 0q0-6.28-.92-10.4t-2.46-6.56-3.54-3.42-4.16-.98q-2.12 0-4.1.98t-3.5 3.42-2.42 6.56-.9 10.4.9 10.4 2.42 6.56 3.5 3.42 4.1.98q2.16 0 4.16-.98t3.54-3.42 2.46-6.56.92-10.4m56.6 0q0 7.56-1.62 13.14t-4.48 9.22-6.76 5.42-8.42 1.78-8.38-1.78-6.7-5.42-4.44-9.22-1.6-13.14q0-7.6 1.6-13.16t4.44-9.2 6.7-5.42 8.38-1.78 8.42 1.78 6.76 5.42 4.48 9.2 1.62 13.16m-10.2 0q0-6.28-.92-10.4t-2.46-6.56-3.54-3.42-4.16-.98q-2.12 0-4.1.98t-3.5 3.42-2.42 6.56-.9 10.4.9 10.4 2.42 6.56 3.5 3.42 4.1.98q2.16 0 4.16-.98t3.54-3.42 2.46-6.56.92-10.4"/></svg>